<?xml version="1.0" encoding="utf-8"?>
<!DOCTYPE svg>
<svg xmlns="http://www.w3.org/2000/svg" width="10" height="20">
<rect x="3" y="0" width="1" height="1" style="fill: rgb(255,212,121)" fill-opacity="1.000000"></rect>
<rect x="4" y="0" width="1" height="1" style="fill: rgb(255,212,121)" fill-opacity="1.000000"></rect>
<rect x="5" y="0" width="1" height="1" style="fill: rgb(255,212,121)" fill-opacity="1.000000"></rect>
<rect x="6" y="0" width="1" height="1" style="fill: rgb(255,212,121)" fill-opacity="1.000000"></rect>
<rect x="3" y="1" width="1" height="1" style="fill: rgb(255,212,121)" fill-opacity="1.000000"></rect>
<rect x="4" y="1" width="1" height="1" style="fill: rgb(33,33,33)" fill-opacity="1.000000"></rect>
<rect x="5" y="1" width="1" height="1" style="fill: rgb(255,212,121)" fill-opacity="1.000000"></rect>
<rect x="6" y="1" width="1" height="1" style="fill: rgb(33,33,33)" fill-opacity="1.000000"></rect>
<rect x="3" y="2" width="1" height="1" style="fill: rgb(255,212,121)" fill-opacity="1.000000"></rect>
<rect x="4" y="2" width="1" height="1" style="fill: rgb(255,212,121)" fill-opacity="1.000000"></rect>
<rect x="5" y="2" width="1" height="1" style="fill: rgb(255,212,121)" fill-opacity="1.000000"></rect>
<rect x="6" y="2" width="1" height="1" style="fill: rgb(255,212,121)" fill-opacity="1.000000"></rect>
<rect x="3" y="3" width="1" height="1" style="fill: rgb(255,212,121)" fill-opacity="1.000000"></rect>
<rect x="4" y="3" width="1" height="1" style="fill: rgb(255,212,121)" fill-opacity="1.000000"></rect>
<rect x="5" y="3" width="1" height="1" style="fill: rgb(255,212,121)" fill-opacity="1.000000"></rect>
<rect x="6" y="3" width="1" height="1" style="fill: rgb(255,212,121)" fill-opacity="1.000000"></rect>
<rect x="1" y="4" width="1" height="1" style="fill: rgb(255,38,0)" fill-opacity="1.000000"></rect>
<rect x="2" y="4" width="1" height="1" style="fill: rgb(255,38,0)" fill-opacity="1.000000"></rect>
<rect x="3" y="4" width="1" height="1" style="fill: rgb(255,38,0)" fill-opacity="1.000000"></rect>
<rect x="4" y="4" width="1" height="1" style="fill: rgb(255,38,0)" fill-opacity="1.000000"></rect>
<rect x="5" y="4" width="1" height="1" style="fill: rgb(255,38,0)" fill-opacity="1.000000"></rect>
<rect x="6" y="4" width="1" height="1" style="fill: rgb(255,38,0)" fill-opacity="1.000000"></rect>
<rect x="7" y="4" width="1" height="1" style="fill: rgb(255,38,0)" fill-opacity="1.000000"></rect>
<rect x="8" y="4" width="1" height="1" style="fill: rgb(255,38,0)" fill-opacity="1.000000"></rect>
<rect x="1" y="5" width="1" height="1" style="fill: rgb(255,38,0)" fill-opacity="1.000000"></rect>
<rect x="2" y="5" width="1" height="1" style="fill: rgb(255,38,0)" fill-opacity="1.000000"></rect>
<rect x="3" y="5" width="1" height="1" style="fill: rgb(255,38,0)" fill-opacity="1.000000"></rect>
<rect x="4" y="5" width="1" height="1" style="fill: rgb(255,38,0)" fill-opacity="1.000000"></rect>
<rect x="5" y="5" width="1" height="1" style="fill: rgb(255,38,0)" fill-opacity="1.000000"></rect>
<rect x="6" y="5" width="1" height="1" style="fill: rgb(255,38,0)" fill-opacity="1.000000"></rect>
<rect x="7" y="5" width="1" height="1" style="fill: rgb(255,38,0)" fill-opacity="1.000000"></rect>
<rect x="8" y="5" width="1" height="1" style="fill: rgb(255,38,0)" fill-opacity="1.000000"></rect>
<rect x="1" y="6" width="1" height="1" style="fill: rgb(255,38,0)" fill-opacity="1.000000"></rect>
<rect x="2" y="6" width="1" height="1" style="fill: rgb(255,38,0)" fill-opacity="1.000000"></rect>
<rect x="3" y="6" width="1" height="1" style="fill: rgb(255,38,0)" fill-opacity="1.000000"></rect>
<rect x="4" y="6" width="1" height="1" style="fill: rgb(255,38,0)" fill-opacity="1.000000"></rect>
<rect x="5" y="6" width="1" height="1" style="fill: rgb(255,38,0)" fill-opacity="1.000000"></rect>
<rect x="6" y="6" width="1" height="1" style="fill: rgb(255,38,0)" fill-opacity="1.000000"></rect>
<rect x="7" y="6" width="1" height="1" style="fill: rgb(255,38,0)" fill-opacity="1.000000"></rect>
<rect x="8" y="6" width="1" height="1" style="fill: rgb(255,38,0)" fill-opacity="1.000000"></rect>
<rect x="1" y="7" width="1" height="1" style="fill: rgb(255,38,0)" fill-opacity="1.000000"></rect>
<rect x="2" y="7" width="1" height="1" style="fill: rgb(255,38,0)" fill-opacity="1.000000"></rect>
<rect x="3" y="7" width="1" height="1" style="fill: rgb(255,38,0)" fill-opacity="1.000000"></rect>
<rect x="4" y="7" width="1" height="1" style="fill: rgb(255,38,0)" fill-opacity="1.000000"></rect>
<rect x="5" y="7" width="1" height="1" style="fill: rgb(255,38,0)" fill-opacity="1.000000"></rect>
<rect x="6" y="7" width="1" height="1" style="fill: rgb(255,38,0)" fill-opacity="1.000000"></rect>
<rect x="7" y="7" width="1" height="1" style="fill: rgb(255,38,0)" fill-opacity="1.000000"></rect>
<rect x="8" y="7" width="1" height="1" style="fill: rgb(255,38,0)" fill-opacity="1.000000"></rect>
<rect x="1" y="8" width="1" height="1" style="fill: rgb(255,38,0)" fill-opacity="1.000000"></rect>
<rect x="2" y="8" width="1" height="1" style="fill: rgb(255,255,255)" fill-opacity="1.000000"></rect>
<rect x="3" y="8" width="1" height="1" style="fill: rgb(255,255,255)" fill-opacity="1.000000"></rect>
<rect x="4" y="8" width="1" height="1" style="fill: rgb(255,255,255)" fill-opacity="1.000000"></rect>
<rect x="5" y="8" width="1" height="1" style="fill: rgb(255,255,255)" fill-opacity="1.000000"></rect>
<rect x="6" y="8" width="1" height="1" style="fill: rgb(255,255,255)" fill-opacity="1.000000"></rect>
<rect x="7" y="8" width="1" height="1" style="fill: rgb(255,255,255)" fill-opacity="1.000000"></rect>
<rect x="8" y="8" width="1" height="1" style="fill: rgb(255,38,0)" fill-opacity="1.000000"></rect>
<rect x="1" y="9" width="1" height="1" style="fill: rgb(255,212,121)" fill-opacity="1.000000"></rect>
<rect x="2" y="9" width="1" height="1" style="fill: rgb(255,255,255)" fill-opacity="1.000000"></rect>
<rect x="3" y="9" width="1" height="1" style="fill: rgb(255,255,255)" fill-opacity="1.000000"></rect>
<rect x="4" y="9" width="1" height="1" style="fill: rgb(255,255,255)" fill-opacity="1.000000"></rect>
<rect x="5" y="9" width="1" height="1" style="fill: rgb(255,255,255)" fill-opacity="1.000000"></rect>
<rect x="6" y="9" width="1" height="1" style="fill: rgb(255,255,255)" fill-opacity="1.000000"></rect>
<rect x="7" y="9" width="1" height="1" style="fill: rgb(255,255,255)" fill-opacity="1.000000"></rect>
<rect x="8" y="9" width="1" height="1" style="fill: rgb(255,212,121)" fill-opacity="1.000000"></rect>
<rect x="2" y="10" width="1" height="1" style="fill: rgb(255,255,255)" fill-opacity="1.000000"></rect>
<rect x="3" y="10" width="1" height="1" style="fill: rgb(255,255,255)" fill-opacity="1.000000"></rect>
<rect x="4" y="10" width="1" height="1" style="fill: rgb(255,255,255)" fill-opacity="1.000000"></rect>
<rect x="5" y="10" width="1" height="1" style="fill: rgb(255,255,255)" fill-opacity="1.000000"></rect>
<rect x="6" y="10" width="1" height="1" style="fill: rgb(255,255,255)" fill-opacity="1.000000"></rect>
<rect x="7" y="10" width="1" height="1" style="fill: rgb(255,255,255)" fill-opacity="1.000000"></rect>
<rect x="2" y="11" width="1" height="1" style="fill: rgb(255,255,255)" fill-opacity="1.000000"></rect>
<rect x="3" y="11" width="1" height="1" style="fill: rgb(255,255,255)" fill-opacity="1.000000"></rect>
<rect x="4" y="11" width="1" height="1" style="fill: rgb(255,255,255)" fill-opacity="1.000000"></rect>
<rect x="5" y="11" width="1" height="1" style="fill: rgb(255,255,255)" fill-opacity="1.000000"></rect>
<rect x="6" y="11" width="1" height="1" style="fill: rgb(255,255,255)" fill-opacity="1.000000"></rect>
<rect x="7" y="11" width="1" height="1" style="fill: rgb(255,255,255)" fill-opacity="1.000000"></rect>
<rect x="2" y="12" width="1" height="1" style="fill: rgb(255,255,255)" fill-opacity="1.000000"></rect>
<rect x="3" y="12" width="1" height="1" style="fill: rgb(255,255,255)" fill-opacity="1.000000"></rect>
<rect x="4" y="12" width="1" height="1" style="fill: rgb(255,255,255)" fill-opacity="1.000000"></rect>
<rect x="5" y="12" width="1" height="1" style="fill: rgb(255,255,255)" fill-opacity="1.000000"></rect>
<rect x="6" y="12" width="1" height="1" style="fill: rgb(255,255,255)" fill-opacity="1.000000"></rect>
<rect x="7" y="12" width="1" height="1" style="fill: rgb(255,255,255)" fill-opacity="1.000000"></rect>
<rect x="3" y="13" width="1" height="1" style="fill: rgb(33,33,33)" fill-opacity="1.000000"></rect>
<rect x="6" y="13" width="1" height="1" style="fill: rgb(33,33,33)" fill-opacity="1.000000"></rect>
<rect x="3" y="14" width="1" height="1" style="fill: rgb(33,33,33)" fill-opacity="1.000000"></rect>
<rect x="6" y="14" width="1" height="1" style="fill: rgb(33,33,33)" fill-opacity="1.000000"></rect>
<rect x="3" y="15" width="1" height="1" style="fill: rgb(33,33,33)" fill-opacity="1.000000"></rect>
<rect x="6" y="15" width="1" height="1" style="fill: rgb(33,33,33)" fill-opacity="1.000000"></rect>
<rect x="3" y="16" width="1" height="1" style="fill: rgb(33,33,33)" fill-opacity="1.000000"></rect>
<rect x="6" y="16" width="1" height="1" style="fill: rgb(33,33,33)" fill-opacity="1.000000"></rect>
<rect x="3" y="17" width="1" height="1" style="fill: rgb(33,33,33)" fill-opacity="1.000000"></rect>
<rect x="6" y="17" width="1" height="1" style="fill: rgb(33,33,33)" fill-opacity="1.000000"></rect>
<rect x="3" y="18" width="1" height="1" style="fill: rgb(33,33,33)" fill-opacity="1.000000"></rect>
<rect x="6" y="18" width="1" height="1" style="fill: rgb(33,33,33)" fill-opacity="1.000000"></rect>
<rect x="3" y="19" width="1" height="1" style="fill: rgb(33,33,33)" fill-opacity="1.000000"></rect>
<rect x="4" y="19" width="1" height="1" style="fill: rgb(33,33,33)" fill-opacity="1.000000"></rect>
<rect x="6" y="19" width="1" height="1" style="fill: rgb(33,33,33)" fill-opacity="1.000000"></rect>
<rect x="7" y="19" width="1" height="1" style="fill: rgb(33,33,33)" fill-opacity="1.000000"></rect>
</svg>
